<svg xmlns="http://www.w3.org/2000/svg" width="256" height="256" fill="none"><g clip-path="url(#a)"><rect width="256" height="256" fill="#fff" rx="32"/><path fill="#3B82F6" d="M122.011 81.724c11.118-10.667 30.756-15.873 45.245-3.67l.696.605.332.295.297.332c11.454 12.813 11.633 33.147.536 46.194l-.536.616-49.292 55.14-11.716-10.474 49.293-55.139.29-.334c5.914-6.97 5.917-18.215.007-25.188-6.498-5.434-17.09-4.107-24.431 3.117l-78.401 88.007a7.858 7.858 0 0 1-11.734-10.453l78.722-88.367.16-.16.532-.521Zm-2.722 99.512a7.857 7.857 0 0 1-11.094.62 7.856 7.856 0 0 1-.622-11.094l11.716 10.474ZM177.762 140.889a7.857 7.857 0 0 1 10.818.291l.278.293 26.518 29.465.263.307a7.857 7.857 0 0 1-11.665 10.498l-.278-.293-26.518-29.465-.263-.306a7.858 7.858 0 0 1 .847-10.79Z"/></g><defs><clipPath id="a"><path fill="#fff" d="M0 0h256v256H0z"/></clipPath></defs></svg>
